<svg xmlns="http://www.w3.org/2000/svg" viewBox="0 0 600 600">
  <defs>
    <pattern id="grid1" width="30" height="30" patternUnits="userSpaceOnUse">
      <path d="M 30 0 L 0 0 0 30" fill="none" stroke="#e4e0d5" stroke-width="1"/>
    </pattern>
  </defs>
  <rect width="600" height="600" fill="#f3f1ea"/>
  <rect width="600" height="600" fill="url(#grid1)"/>

  <g fill="none" stroke="#14130f" stroke-width="1.5">
    <ellipse cx="300" cy="300" rx="150" ry="60" transform="rotate(-18 300 300)"/>
    <ellipse cx="300" cy="300" rx="120" ry="46" transform="rotate(-18 300 300)"/>
    <path d="M175 260 Q 300 210 425 260" stroke-width="1"/>
    <path d="M175 300 Q 300 250 425 300" stroke-width="1"/>
    <path d="M175 340 Q 300 290 425 340" stroke-width="1"/>
    <circle cx="300" cy="300" r="4" fill="#14130f" stroke="none"/>
  </g>

  <g font-family="JetBrains Mono, monospace" fill="#8a6a4f">
    <text x="40" y="50" font-size="13" letter-spacing="1">N&#176;01 — VERTEBRA RING</text>
    <text x="40" y="560" font-size="10" fill="#5c594e">PLACEHOLDER — replace with your product photo</text>
  </g>

  <g stroke="#b8b3a4" stroke-width="1">
    <line x1="24" y1="24" x2="60" y2="24"/>
    <line x1="24" y1="24" x2="24" y2="60"/>
    <line x1="576" y1="24" x2="540" y2="24"/>
    <line x1="576" y1="24" x2="576" y2="60"/>
    <line x1="24" y1="576" x2="60" y2="576"/>
    <line x1="24" y1="576" x2="24" y2="540"/>
    <line x1="576" y1="576" x2="540" y2="576"/>
    <line x1="576" y1="576" x2="576" y2="540"/>
  </g>
</svg>
